<?xml version="1.0" encoding="UTF-8"?>
<svg width="20px" height="20px" viewBox="0 0 20 20" version="1.1" xmlns="http://www.w3.org/2000/svg" xmlns:xlink="http://www.w3.org/1999/xlink">
    <title>book</title>
    <g id="book" stroke="none" stroke-width="1" fill="none" fill-rule="evenodd">
        <path d="M17,13.25 L17,2.75 C17,2.334375 16.665625,2 16.25,2 L6,2 C4.34375,2 3,3.34375 3,5 L3,15 C3,16.65625 4.34375,18 6,18 L16.25,18 C16.665625,18 17,17.665625 17,17.25 L17,16.75 C17,16.515625 16.890625,16.303125 16.721875,16.165625 C16.590625,15.684375 16.590625,14.3125 16.721875,13.83125 C16.890625,13.696875 17,13.484375 17,13.25 Z M7,6.1875 C7,6.084375 7.084375,6 7.1875,6 L13.8125,6 C13.915625,6 14,6.084375 14,6.1875 L14,6.8125 C14,6.915625 13.915625,7 13.8125,7 L7.1875,7 C7.084375,7 7,6.915625 7,6.8125 L7,6.1875 Z M7,8.1875 C7,8.084375 7.084375,8 7.1875,8 L13.8125,8 C13.915625,8 14,8.084375 14,8.1875 L14,8.8125 C14,8.915625 13.915625,9 13.8125,9 L7.1875,9 C7.084375,9 7,8.915625 7,8.8125 L7,8.1875 Z M14.91875,16 L6,16 C5.446875,16 5,15.553125 5,15 C5,14.45 5.45,14 6,14 L14.91875,14 C14.859375,14.534375 14.859375,15.465625 14.91875,16 Z" id="Shape" fill="#000000" fill-rule="nonzero"></path>
    </g>
</svg>