<?xml version="1.0" encoding="UTF-8"?>
<svg width="20px" height="20px" viewBox="0 0 20 20" version="1.1" xmlns="http://www.w3.org/2000/svg" xmlns:xlink="http://www.w3.org/1999/xlink">
    <title>compress</title>
    <g id="compress" stroke="none" stroke-width="1" fill="none" fill-rule="evenodd">
        <rect id="Rectangle" fill="#000000" x="9.24332294" y="2" width="1.51335412" height="5.63715964" rx="0.4"></rect>
        <rect id="Rectangle" fill="#000000" transform="translate(10.000000, 15.181420) rotate(180.000000) translate(-10.000000, -15.181420) " x="9.24332294" y="12.3628404" width="1.51335412" height="5.63715964" rx="0.4"></rect>
        <path d="M13.1988136,4.73497465 L13.7032311,5.23939219 C13.8594408,5.3956019 13.8594408,5.64886789 13.7032311,5.80507761 L10.2828427,9.22546599 C10.126633,9.38167571 9.873367,9.38167571 9.71715729,9.22546599 L9.21273975,8.72104846 C9.05653003,8.56483874 9.05653003,8.31157275 9.21273975,8.15536303 L12.6331281,4.73497465 C12.7893379,4.57876493 13.0426038,4.57876493 13.1988136,4.73497465 Z" id="Rectangle-Copy" fill="#000000"></path>
        <path d="M10.7872602,8.72104846 L10.2828427,9.22546599 C10.126633,9.38167571 9.873367,9.38167571 9.71715729,9.22546599 L6.2967689,5.80507761 C6.14055919,5.64886789 6.14055919,5.3956019 6.2967689,5.23939219 L6.80118644,4.73497465 C6.95739616,4.57876493 7.21066215,4.57876493 7.36687187,4.73497465 L10.7872602,8.15536303 C10.94347,8.31157275 10.94347,8.56483874 10.7872602,8.72104846 Z" id="Rectangle-Copy-2" fill="#000000"></path>
        <path d="M6.80118644,15.2650254 L6.2967689,14.7606078 C6.14055919,14.6043981 6.14055919,14.3511321 6.2967689,14.1949224 L9.71715729,10.774534 C9.873367,10.6183243 10.126633,10.6183243 10.2828427,10.774534 L10.7872602,11.2789515 C10.94347,11.4351613 10.94347,11.6884273 10.7872602,11.844637 L7.36687187,15.2650254 C7.21066215,15.4212351 6.95739616,15.4212351 6.80118644,15.2650254 Z" id="Rectangle-Copy" fill="#000000"></path>
        <path d="M9.21273975,11.2789515 L9.71715729,10.774534 C9.873367,10.6183243 10.126633,10.6183243 10.2828427,10.774534 L13.7032311,14.1949224 C13.8594408,14.3511321 13.8594408,14.6043981 13.7032311,14.7606078 L13.1988136,15.2650254 C13.0426038,15.4212351 12.7893379,15.4212351 12.6331281,15.2650254 L9.21273975,11.844637 C9.05653003,11.6884273 9.05653003,11.4351613 9.21273975,11.2789515 Z" id="Rectangle-Copy-2" fill="#000000"></path>
    </g>
</svg>