<?xml version="1.0" encoding="UTF-8"?>
<svg width="20px" height="20px" viewBox="0 0 20 20" version="1.1" xmlns="http://www.w3.org/2000/svg" xmlns:xlink="http://www.w3.org/1999/xlink">
    <title>drag</title>
    <g id="drag" stroke="none" stroke-width="1" fill="none" fill-rule="evenodd">
        <path d="M2.28571429,11.2857143 C2.99579468,11.2857143 3.57142857,11.8613482 3.57142857,12.5714286 C3.57142857,13.281509 2.99579468,13.8571429 2.28571429,13.8571429 C1.57563389,13.8571429 1,13.281509 1,12.5714286 C1,11.8613482 1.57563389,11.2857143 2.28571429,11.2857143 Z M7.42857143,11.2857143 C8.13865182,11.2857143 8.71428571,11.8613482 8.71428571,12.5714286 C8.71428571,13.281509 8.13865182,13.8571429 7.42857143,13.8571429 C6.71849104,13.8571429 6.14285714,13.281509 6.14285714,12.5714286 C6.14285714,11.8613482 6.71849104,11.2857143 7.42857143,11.2857143 Z M12.5714286,11.2857143 C13.281509,11.2857143 13.8571429,11.8613482 13.8571429,12.5714286 C13.8571429,13.281509 13.281509,13.8571429 12.5714286,13.8571429 C11.8613482,13.8571429 11.2857143,13.281509 11.2857143,12.5714286 C11.2857143,11.8613482 11.8613482,11.2857143 12.5714286,11.2857143 Z M17.7142857,11.2857143 C18.4243661,11.2857143 19,11.8613482 19,12.5714286 C19,13.281509 18.4243661,13.8571429 17.7142857,13.8571429 C17.0042053,13.8571429 16.4285714,13.281509 16.4285714,12.5714286 C16.4285714,11.8613482 17.0042053,11.2857143 17.7142857,11.2857143 Z M2.28571429,6.14285714 C2.99579468,6.14285714 3.57142857,6.71849104 3.57142857,7.42857143 C3.57142857,8.13865182 2.99579468,8.71428571 2.28571429,8.71428571 C1.57563389,8.71428571 1,8.13865182 1,7.42857143 C1,6.71849104 1.57563389,6.14285714 2.28571429,6.14285714 Z M7.42857143,6.14285714 C8.13865182,6.14285714 8.71428571,6.71849104 8.71428571,7.42857143 C8.71428571,8.13865182 8.13865182,8.71428571 7.42857143,8.71428571 C6.71849104,8.71428571 6.14285714,8.13865182 6.14285714,7.42857143 C6.14285714,6.71849104 6.71849104,6.14285714 7.42857143,6.14285714 Z M12.5714286,6.14285714 C13.281509,6.14285714 13.8571429,6.71849104 13.8571429,7.42857143 C13.8571429,8.13865182 13.281509,8.71428571 12.5714286,8.71428571 C11.8613482,8.71428571 11.2857143,8.13865182 11.2857143,7.42857143 C11.2857143,6.71849104 11.8613482,6.14285714 12.5714286,6.14285714 Z M17.7142857,6.14285714 C18.4243661,6.14285714 19,6.71849104 19,7.42857143 C19,8.13865182 18.4243661,8.71428571 17.7142857,8.71428571 C17.0042053,8.71428571 16.4285714,8.13865182 16.4285714,7.42857143 C16.4285714,6.71849104 17.0042053,6.14285714 17.7142857,6.14285714 Z" id="Shape" fill="#000000"></path>
    </g>
</svg>