<?xml version="1.0" encoding="UTF-8"?>
<svg width="20px" height="20px" viewBox="0 0 20 20" version="1.1" xmlns="http://www.w3.org/2000/svg" xmlns:xlink="http://www.w3.org/1999/xlink">
    <title>ellipsis-h</title>
    <g id="ellipsis-h" stroke="none" stroke-width="1" fill="none" fill-rule="evenodd">
        <path d="M10,8.08 C11.06,8.08 11.92,8.94 11.92,10 C11.92,11.06 11.06,11.92 10,11.92 C8.94,11.92 8.08,11.06 8.08,10 C8.08,8.94 8.94,8.08 10,8.08 Z M8.08,3.92 C8.08,4.98 8.94,5.84 10,5.84 C11.06,5.84 11.92,4.98 11.92,3.92 C11.92,2.86 11.06,2 10,2 C8.94,2 8.08,2.86 8.08,3.92 Z M8.08,16.08 C8.08,17.14 8.94,18 10,18 C11.06,18 11.92,17.14 11.92,16.08 C11.92,15.02 11.06,14.16 10,14.16 C8.94,14.16 8.08,15.02 8.08,16.08 Z" id="Shape" fill="#000000" fill-rule="nonzero" transform="translate(10.000000, 10.000000) rotate(90.000000) translate(-10.000000, -10.000000) "></path>
    </g>
</svg>