<?xml version="1.0" encoding="UTF-8"?>
<svg width="20px" height="20px" viewBox="0 0 20 20" version="1.1" xmlns="http://www.w3.org/2000/svg" xmlns:xlink="http://www.w3.org/1999/xlink">
    <title>lock</title>
    <g id="lock" stroke="none" stroke-width="1" fill="none" fill-rule="evenodd">
        <path d="M15.5,9 L14.75,9 L14.75,6.75 C14.75,4.13125 12.61875,2 10,2 C7.38125,2 5.25,4.13125 5.25,6.75 L5.25,9 L4.5,9 C3.671875,9 3,9.671875 3,10.5 L3,16.5 C3,17.328125 3.671875,18 4.5,18 L15.5,18 C16.328125,18 17,17.328125 17,16.5 L17,10.5 C17,9.671875 16.328125,9 15.5,9 Z M11.25,14.25 C11.25,14.940625 10.690625,15.5 10,15.5 C9.309375,15.5 8.75,14.940625 8.75,14.25 L8.75,12.75 C8.75,12.059375 9.309375,11.5 10,11.5 C10.690625,11.5 11.25,12.059375 11.25,12.75 L11.25,14.25 Z M12.25,9 L7.75,9 L7.75,6.75 C7.75,5.509375 8.759375,4.5 10,4.5 C11.240625,4.5 12.25,5.509375 12.25,6.75 L12.25,9 Z" id="Shape" fill="#000000" fill-rule="nonzero"></path>
    </g>
</svg>