<?xml version="1.0" encoding="UTF-8"?>
<svg width="20px" height="20px" viewBox="0 0 20 20" version="1.1" xmlns="http://www.w3.org/2000/svg" xmlns:xlink="http://www.w3.org/1999/xlink">
    <title>pundit</title>
    <g id="pundit" stroke="none" stroke-width="1" fill="none" fill-rule="evenodd">
        <path d="M14.9111322,2 L4.22361692,2 C4.09761405,2 3.99549682,2.10209261 3.99549682,2.22809547 L3.99549682,4.247047 C3.99549682,4.37290212 4.09744168,4.47482236 4.22314906,4.47509323 C4.22314906,4.47509323 4.22351842,4.47514248 4.22361692,4.47514248 C4.22361692,4.47514248 4.22396166,4.47509323 4.22406016,4.47509323 L13.3013884,4.47509323 C13.4272927,4.47509323 13.52941,4.57721046 13.52941,4.70321333 L13.52941,9.71850659 C13.52941,9.84450946 13.4272927,9.94655282 13.3013884,9.94655282 L4.22361692,9.94655282 C4.09761405,9.94655282 3.99549682,10.0486208 3.99549682,10.1746237 L3.99549682,12.4216707 L3.99549682,17.7722739 C3.99549682,17.8980798 4.09744168,18 4.22324755,18 C4.32265611,18 4.40628044,17.9359767 4.43733177,17.8471566 C4.43743026,17.8472058 4.43814437,17.8475013 4.43814437,17.8475013 L6.47061467,12.4216707 L14.9111322,12.4216707 C15.5149708,12.4216707 16.0045032,11.9320891 16.0045032,11.3280288 L16.0045032,9.94655282 L16.0045032,4.47509323 L16.0045032,3.09354334 C16.0045032,2.48960621 15.5149708,2 14.9111322,2" id="Fill-33" fill="#000000"></path>
    </g>
</svg>