<?xml version="1.0" encoding="UTF-8"?>
<svg width="20px" height="20px" viewBox="0 0 20 20" version="1.1" xmlns="http://www.w3.org/2000/svg" xmlns:xlink="http://www.w3.org/1999/xlink">
    <title>signout</title>
    <g id="signout" stroke="none" stroke-width="1" fill="none" fill-rule="evenodd">
        <path d="M4.99985352,4.00029295 L7.62472536,4.00029295 C7.83096528,4.00029295 7.99970705,4.16903472 7.99970705,4.37527464 L7.99970705,5.12523803 C7.99970705,5.33147796 7.83096528,5.50021972 7.62472536,5.50021972 L4.99985352,5.50021972 C4.17176896,5.50021972 3.49992676,6.17206191 3.49992676,7.00014648 L3.49992676,12.9998535 C3.49992676,13.8279381 4.17176896,14.4997803 4.99985352,14.4997803 L7.62472536,14.4997803 C7.83096528,14.4997803 7.99970705,14.668522 7.99970705,14.874762 L7.99970705,15.6247254 C7.99970705,15.8309653 7.83096528,15.999707 7.62472536,15.999707 L4.99985352,15.999707 C3.34368439,15.999707 2,14.6560227 2,12.9998535 L2,7.00014648 C2,5.34397734 3.34368439,4.00029295 4.99985352,4.00029295 Z M12.2213759,4.6096382 L11.6089058,5.2221083 C11.4589131,5.37210097 11.462038,5.61271422 11.6151555,5.7564572 L15.1493579,9.18753967 L7.37473756,9.18753967 C7.16849763,9.18753967 6.99975587,9.35628143 6.99975587,9.56252136 L6.99975587,10.4374786 C6.99975587,10.6437186 7.16849763,10.8124603 7.37473756,10.8124603 L15.1493579,10.8124603 L11.6151555,14.2404179 C11.4651628,14.3872858 11.462038,14.627899 11.6089058,14.7747669 L12.2213759,15.387237 C12.3682437,15.5341048 12.6057321,15.5341048 12.7526,15.387237 L17.8898491,10.2624872 C18.036717,10.1156194 18.036717,9.87813095 17.8898491,9.73126312 L12.7526,4.60651335 C12.6057321,4.46277037 12.3682437,4.46277037 12.2213759,4.6096382 Z" id="Shape" fill="#000000" fill-rule="nonzero"></path>
    </g>
</svg>