<?xml version="1.0" encoding="UTF-8"?>
<svg width="20px" height="20px" viewBox="0 0 20 20" version="1.1" xmlns="http://www.w3.org/2000/svg" xmlns:xlink="http://www.w3.org/1999/xlink">
    <title>times</title>
    <g id="times" stroke="none" stroke-width="1" fill="none" fill-rule="evenodd">
        <path d="M4.11359053,2.18596806 L9.99911857,8.07209186 L15.8864095,2.18596806 C16.1343669,1.93801065 16.5363853,1.93801065 16.7843427,2.18596806 L17.8140319,3.21565731 C18.0619894,3.46361472 18.0619894,3.86563312 17.8140319,4.11359053 L11.9272035,9.99911857 L17.8140319,15.8864095 C18.0619894,16.1343669 18.0619894,16.5363853 17.8140319,16.7843427 L16.7843427,17.8140319 C16.5363853,18.0619894 16.1343669,18.0619894 15.8864095,17.8140319 L9.99911857,11.9272035 L4.11359053,17.8140319 C3.86563312,18.0619894 3.46361472,18.0619894 3.21565731,17.8140319 L2.18596806,16.7843427 C1.93801065,16.5363853 1.93801065,16.1343669 2.18596806,15.8864095 L8.07209186,9.99911857 L2.18596806,4.11359053 C1.93801065,3.86563312 1.93801065,3.46361472 2.18596806,3.21565731 L3.21565731,2.18596806 C3.46361472,1.93801065 3.86563312,1.93801065 4.11359053,2.18596806 Z" id="Path" fill="#000000"></path>
    </g>
</svg>