<?xml version="1.0" encoding="UTF-8"?>
<svg width="20px" height="20px" viewBox="0 0 20 20" version="1.1" xmlns="http://www.w3.org/2000/svg" xmlns:xlink="http://www.w3.org/1999/xlink">
    <title>users</title>
    <g id="users" stroke="none" stroke-width="1" fill="none" fill-rule="evenodd">
        <path d="M4.4,9.2 C5.2825,9.2 6,8.4825 6,7.6 C6,6.7175 5.2825,6 4.4,6 C3.5175,6 2.8,6.7175 2.8,7.6 C2.8,8.4825 3.5175,9.2 4.4,9.2 Z M15.6,9.2 C16.4825,9.2 17.2,8.4825 17.2,7.6 C17.2,6.7175 16.4825,6 15.6,6 C14.7175,6 14,6.7175 14,7.6 C14,8.4825 14.7175,9.2 15.6,9.2 Z M16.4,10 L14.8,10 C14.36,10 13.9625,10.1775 13.6725,10.465 C14.68,11.0175 15.395,12.015 15.55,13.2 L17.2,13.2 C17.6425,13.2 18,12.8425 18,12.4 L18,11.6 C18,10.7175 17.2825,10 16.4,10 Z M10,10 C11.5475,10 12.8,8.7475 12.8,7.2 C12.8,5.6525 11.5475,4.4 10,4.4 C8.4525,4.4 7.2,5.6525 7.2,7.2 C7.2,8.7475 8.4525,10 10,10 Z M11.92,10.8 L11.7125,10.8 C11.1925,11.05 10.615,11.2 10,11.2 C9.385,11.2 8.81,11.05 8.2875,10.8 L8.08,10.8 C6.49,10.8 5.2,12.09 5.2,13.68 L5.2,14.4 C5.2,15.0625 5.7375,15.6 6.4,15.6 L13.6,15.6 C14.2625,15.6 14.8,15.0625 14.8,14.4 L14.8,13.68 C14.8,12.09 13.51,10.8 11.92,10.8 Z M6.3275,10.465 C6.0375,10.1775 5.64,10 5.2,10 L3.6,10 C2.7175,10 2,10.7175 2,11.6 L2,12.4 C2,12.8425 2.3575,13.2 2.8,13.2 L4.4475,13.2 C4.605,12.015 5.32,11.0175 6.3275,10.465 Z" id="Shape" fill="#000000" fill-rule="nonzero"></path>
    </g>
</svg>